<svg xmlns="http://www.w3.org/2000/svg" xmlns:xlink="http://www.w3.org/1999/xlink" width="500" zoomAndPan="magnify" viewBox="0 0 375 374.999991" height="500" preserveAspectRatio="xMidYMid meet" version="1.0"><defs><clipPath id="d7f6262444"><path d="M 275.929688 239.816406 L 302.847656 239.816406 L 302.847656 266.734375 L 275.929688 266.734375 Z M 275.929688 239.816406 " clip-rule="nonzero"/></clipPath><clipPath id="3beca4c56a"><path d="M 289.386719 239.816406 C 281.953125 239.816406 275.929688 245.84375 275.929688 253.273438 C 275.929688 260.707031 281.953125 266.734375 289.386719 266.734375 C 296.820312 266.734375 302.847656 260.707031 302.847656 253.273438 C 302.847656 245.84375 296.820312 239.816406 289.386719 239.816406 Z M 289.386719 239.816406 " clip-rule="nonzero"/></clipPath><clipPath id="f956723aec"><path d="M 283.1875 247.074219 L 295.589844 247.074219 L 295.589844 259.476562 L 283.1875 259.476562 Z M 283.1875 247.074219 " clip-rule="nonzero"/></clipPath><clipPath id="ed10118887"><path d="M 289.390625 247.074219 C 285.964844 247.074219 283.1875 249.851562 283.1875 253.277344 C 283.1875 256.699219 285.964844 259.476562 289.390625 259.476562 C 292.8125 259.476562 295.589844 256.699219 295.589844 253.277344 C 295.589844 249.851562 292.8125 247.074219 289.390625 247.074219 Z M 289.390625 247.074219 " clip-rule="nonzero"/></clipPath></defs><g clip-path="url(#d7f6262444)"><g clip-path="url(#3beca4c56a)"><path stroke-linecap="butt" transform="matrix(0.75, 0, 0, 0.75, 275.928999, 239.816103)" fill="none" stroke-linejoin="miter" d="M 17.943627 0.000403731 C 8.032168 0.000403731 0.000917759 8.036863 0.000917759 17.943113 C 0.000917759 27.854572 8.032168 35.891031 17.943627 35.891031 C 27.855086 35.891031 35.891545 27.854572 35.891545 17.943113 C 35.891545 8.036863 27.855086 0.000403731 17.943627 0.000403731 Z M 17.943627 0.000403731 " stroke="#000000" stroke-width="8" stroke-opacity="1" stroke-miterlimit="4"/></g></g><g clip-path="url(#f956723aec)"><g clip-path="url(#ed10118887)"><path fill="#000000" d="M 283.1875 247.074219 L 295.589844 247.074219 L 295.589844 259.476562 L 283.1875 259.476562 Z M 283.1875 247.074219 " fill-opacity="1" fill-rule="nonzero"/></g></g></svg>