<svg xmlns="http://www.w3.org/2000/svg" xmlns:xlink="http://www.w3.org/1999/xlink" width="500" zoomAndPan="magnify" viewBox="0 0 375 374.999991" height="500" preserveAspectRatio="xMidYMid meet" version="1.0"><defs><clipPath id="c6010b3f44"><path d="M 2.023438 9.914062 L 179.609375 9.914062 L 179.609375 365.085938 L 2.023438 365.085938 Z M 2.023438 9.914062 " clip-rule="nonzero"/></clipPath><clipPath id="9540f13595"><path d="M 2.023438 9.914062 L 357.199219 9.914062 L 357.199219 365.085938 L 2.023438 365.085938 Z M 2.023438 9.914062 " clip-rule="nonzero"/></clipPath><clipPath id="8a46158d95"><path d="M 179.609375 9.914062 C 81.53125 9.914062 2.023438 89.421875 2.023438 187.5 C 2.023438 285.578125 81.53125 365.085938 179.609375 365.085938 C 277.691406 365.085938 357.199219 285.578125 357.199219 187.5 C 357.199219 89.421875 277.691406 9.914062 179.609375 9.914062 Z M 179.609375 9.914062 " clip-rule="nonzero"/></clipPath><clipPath id="c434b58681"><path d="M 32.714844 40.605469 L 326.503906 40.605469 L 326.503906 334.394531 L 32.714844 334.394531 Z M 32.714844 40.605469 " clip-rule="nonzero"/></clipPath><clipPath id="b121f0d1c6"><path d="M 179.609375 40.605469 C 98.484375 40.605469 32.714844 106.371094 32.714844 187.5 C 32.714844 268.628906 98.484375 334.394531 179.609375 334.394531 C 260.738281 334.394531 326.503906 268.628906 326.503906 187.5 C 326.503906 106.371094 260.738281 40.605469 179.609375 40.605469 Z M 179.609375 40.605469 " clip-rule="nonzero"/></clipPath><clipPath id="3fa48b5f19"><path d="M 179.609375 95.523438 L 357.199219 95.523438 L 357.199219 365.085938 L 179.609375 365.085938 Z M 179.609375 95.523438 " clip-rule="nonzero"/></clipPath><clipPath id="06d6315a93"><path d="M 179.609375 9.914062 L 357.296875 9.914062 L 357.296875 40.605469 L 179.609375 40.605469 Z M 179.609375 9.914062 " clip-rule="nonzero"/></clipPath><clipPath id="3b4f2e9b9b"><path d="M 300.175781 9.914062 L 179.609375 9.914062 L 236.632812 40.605469 L 357.199219 40.605469 Z M 300.175781 9.914062 " clip-rule="nonzero"/></clipPath><clipPath id="ffbeae9259"><path d="M 72.285156 95.523438 L 286.9375 95.523438 L 286.9375 310.171875 L 72.285156 310.171875 Z M 72.285156 95.523438 " clip-rule="nonzero"/></clipPath><clipPath id="6f3794caff"><path d="M 179.609375 95.523438 C 120.335938 95.523438 72.285156 143.574219 72.285156 202.847656 C 72.285156 262.121094 120.335938 310.171875 179.609375 310.171875 C 238.886719 310.171875 286.9375 262.121094 286.9375 202.847656 C 286.9375 143.574219 238.886719 95.523438 179.609375 95.523438 Z M 179.609375 95.523438 " clip-rule="nonzero"/></clipPath><clipPath id="ad8d99fb46"><path d="M 179.609375 40.605469 L 357.199219 40.605469 L 357.199219 95.523438 L 179.609375 95.523438 Z M 179.609375 40.605469 " clip-rule="nonzero"/></clipPath><clipPath id="ad98b85b5f"><path d="M 246.175781 95.523438 L 296.601562 95.523438 L 296.601562 121.445312 L 246.175781 121.445312 Z M 246.175781 95.523438 " clip-rule="nonzero"/></clipPath><clipPath id="d53105230b"><path d="M 271.34375 121.445312 L 296.507812 95.523438 L 246.175781 95.523438 Z M 271.34375 121.445312 " clip-rule="nonzero"/></clipPath><clipPath id="dd7c0bd857"><path d="M 296.507812 95.523438 L 346.9375 95.523438 L 346.9375 121.445312 L 296.507812 121.445312 Z M 296.507812 95.523438 " clip-rule="nonzero"/></clipPath><clipPath id="0722319599"><path d="M 321.675781 121.445312 L 346.84375 95.523438 L 296.507812 95.523438 Z M 321.675781 121.445312 " clip-rule="nonzero"/></clipPath><clipPath id="deeec0af09"><path d="M 271.34375 95.523438 L 321.675781 95.523438 L 321.675781 121.445312 L 271.34375 121.445312 Z M 271.34375 95.523438 " clip-rule="nonzero"/></clipPath><clipPath id="9d95658df7"><path d="M 221 95.519531 L 271.339844 95.519531 L 271.339844 121.445312 L 221 121.445312 Z M 221 95.519531 " clip-rule="nonzero"/></clipPath><clipPath id="af9ba47b6f"><path d="M 246.171875 95.519531 L 221.003906 121.445312 L 271.339844 121.445312 Z M 246.171875 95.519531 " clip-rule="nonzero"/></clipPath><clipPath id="eddbb08081"><path d="M 321.582031 95.519531 L 372.007812 95.519531 L 372.007812 121.445312 L 321.582031 121.445312 Z M 321.582031 95.519531 " clip-rule="nonzero"/></clipPath><clipPath id="eccf1f1b58"><path d="M 346.839844 95.519531 L 321.675781 121.445312 L 372.007812 121.445312 Z M 346.839844 95.519531 " clip-rule="nonzero"/></clipPath></defs><g clip-path="url(#c6010b3f44)"><path fill="#d3d3d0" d="M 2.023438 9.914062 L 179.609375 9.914062 L 179.609375 365.085938 L 2.023438 365.085938 Z M 2.023438 9.914062 " fill-opacity="1" fill-rule="nonzero"/></g><g clip-path="url(#9540f13595)"><g clip-path="url(#8a46158d95)"><path fill="#a19a90" d="M 2.023438 9.914062 L 357.199219 9.914062 L 357.199219 365.085938 L 2.023438 365.085938 Z M 2.023438 9.914062 " fill-opacity="1" fill-rule="nonzero"/></g></g><g clip-path="url(#c434b58681)"><g clip-path="url(#b121f0d1c6)"><path fill="#d3d3d0" d="M 32.714844 40.605469 L 326.503906 40.605469 L 326.503906 334.394531 L 32.714844 334.394531 Z M 32.714844 40.605469 " fill-opacity="1" fill-rule="nonzero"/></g></g><g clip-path="url(#3fa48b5f19)"><path fill="#ffffff" d="M 179.609375 95.523438 L 357.199219 95.523438 L 357.199219 365.371094 L 179.609375 365.371094 Z M 179.609375 95.523438 " fill-opacity="1" fill-rule="nonzero"/></g><g clip-path="url(#06d6315a93)"><g clip-path="url(#3b4f2e9b9b)"><path fill="#a19a90" d="M 179.609375 9.914062 L 357.179688 9.914062 L 357.179688 40.605469 L 179.609375 40.605469 Z M 179.609375 9.914062 " fill-opacity="1" fill-rule="nonzero"/></g></g><g clip-path="url(#ffbeae9259)"><g clip-path="url(#6f3794caff)"><path fill="#ffffff" d="M 72.285156 95.523438 L 286.9375 95.523438 L 286.9375 310.171875 L 72.285156 310.171875 Z M 72.285156 95.523438 " fill-opacity="1" fill-rule="nonzero"/></g></g><g clip-path="url(#ad8d99fb46)"><path fill="#d3d3d0" d="M 179.609375 40.605469 L 357.230469 40.605469 L 357.230469 95.523438 L 179.609375 95.523438 Z M 179.609375 40.605469 " fill-opacity="1" fill-rule="nonzero"/></g><g clip-path="url(#ad98b85b5f)"><g clip-path="url(#d53105230b)"><path fill="#d3d3d0" d="M 246.175781 95.523438 L 296.5 95.523438 L 296.5 121.445312 L 246.175781 121.445312 Z M 246.175781 95.523438 " fill-opacity="1" fill-rule="nonzero"/></g></g><g clip-path="url(#dd7c0bd857)"><g clip-path="url(#0722319599)"><path fill="#d3d3d0" d="M 296.507812 95.523438 L 346.835938 95.523438 L 346.835938 121.445312 L 296.507812 121.445312 Z M 296.507812 95.523438 " fill-opacity="1" fill-rule="nonzero"/></g></g><g clip-path="url(#deeec0af09)"><path fill="#d3d3d0" d="M 271.34375 95.523438 L 321.667969 95.523438 L 321.667969 121.445312 L 271.34375 121.445312 Z M 271.34375 95.523438 " fill-opacity="1" fill-rule="nonzero"/></g><path stroke-linecap="round" transform="matrix(0.75, 0, 0, 0.75, 246.175301, 94.021525)" fill="none" stroke-linejoin="miter" d="M 2.00064 2.00255 L 132.224607 2.00255 " stroke="#4c4a45" stroke-width="4" stroke-opacity="1" stroke-miterlimit="4"/><path stroke-linecap="round" transform="matrix(0.75, 0, 0, 0.75, 259.917057, 113.065181)" fill="none" stroke-linejoin="miter" d="M 2.001216 2.001634 L 95.579347 2.001634 " stroke="#4c4a45" stroke-width="4" stroke-opacity="1" stroke-miterlimit="4"/><g clip-path="url(#9d95658df7)"><g clip-path="url(#af9ba47b6f)"><path fill="#ffffff" d="M 271.339844 121.445312 L 221.015625 121.445312 L 221.015625 95.519531 L 271.339844 95.519531 Z M 271.339844 121.445312 " fill-opacity="1" fill-rule="nonzero"/></g></g><g clip-path="url(#eddbb08081)"><g clip-path="url(#eccf1f1b58)"><path fill="#ffffff" d="M 372.007812 121.445312 L 321.683594 121.445312 L 321.683594 95.519531 L 372.007812 95.519531 Z M 372.007812 121.445312 " fill-opacity="1" fill-rule="nonzero"/></g></g><path stroke-linecap="butt" transform="matrix(0.75, 0, 0, 0.75, 281.431157, 121.464448)" fill="none" stroke-linejoin="miter" d="M -0.00195963 2.000528 L 40.211585 2.000528 " stroke="#4c4a45" stroke-width="4" stroke-opacity="1" stroke-miterlimit="4"/></svg>