<svg xmlns="http://www.w3.org/2000/svg" xmlns:xlink="http://www.w3.org/1999/xlink" width="500" zoomAndPan="magnify" viewBox="0 0 375 374.999991" height="500" preserveAspectRatio="xMidYMid meet" version="1.0"><defs><g/></defs><path stroke-linecap="round" transform="matrix(0.53033, 0.53033, -0.53033, 0.53033, 282.601481, 241.077978)" fill="none" stroke-linejoin="miter" d="M 4.500656 4.500502 L 30.09645 4.500502 " stroke="#000000" stroke-width="9" stroke-opacity="1" stroke-miterlimit="4"/><path stroke-linecap="round" transform="matrix(0.53033, -0.53033, 0.53033, 0.53033, 277.828522, 259.424076)" fill="none" stroke-linejoin="miter" d="M 4.498458 4.501674 L 30.094252 4.501674 " stroke="#000000" stroke-width="9" stroke-opacity="1" stroke-miterlimit="4"/><path stroke-linecap="butt" transform="matrix(0, -0.75, 0.75, 0, 221.002432, 334.388503)" fill="none" stroke-linejoin="miter" d="M 0.00237879 2.001965 L 201.950309 2.001965 " stroke="#4c4a45" stroke-width="4" stroke-opacity="1" stroke-miterlimit="4"/><path stroke-linecap="butt" transform="matrix(-0.75, 0, 0, -0.75, 355.656514, 335.894128)" fill="none" stroke-linejoin="miter" d="M 0.000351927 1.999463 L 179.531614 1.999463 " stroke="#4c4a45" stroke-width="4" stroke-opacity="1" stroke-miterlimit="4"/><path stroke-linecap="butt" transform="matrix(0.00742712, -0.749963, 0.749963, 0.00742712, 352.653937, 334.375788)" fill="none" stroke-linejoin="miter" d="M 0.0000024624 1.997974 L 201.963048 1.997968 " stroke="#4c4a45" stroke-width="4" stroke-opacity="1" stroke-miterlimit="4"/><g fill="#000000" fill-opacity="1"><g transform="translate(304.086312, 251.440546)"><g><path d="M 2.171875 0 L 0.703125 0 L 0.703125 -7.328125 L 2.171875 -7.328125 Z M 2.171875 0 "/></g></g></g><g fill="#000000" fill-opacity="1"><g transform="translate(306.927102, 251.440546)"><g><path d="M 2.671875 -5.421875 C 3.328125 -5.421875 3.84375 -5.3125 4.21875 -5.09375 C 4.601562 -4.875 4.867188 -4.515625 5.015625 -4.015625 L 3.6875 -3.78125 C 3.625 -4 3.507812 -4.160156 3.34375 -4.265625 C 3.1875 -4.367188 2.96875 -4.421875 2.6875 -4.421875 C 2.050781 -4.421875 1.734375 -4.273438 1.734375 -3.984375 C 1.734375 -3.835938 1.835938 -3.722656 2.046875 -3.640625 C 2.253906 -3.554688 2.554688 -3.46875 2.953125 -3.375 C 3.429688 -3.269531 3.820312 -3.160156 4.125 -3.046875 C 4.4375 -2.929688 4.691406 -2.757812 4.890625 -2.53125 C 5.085938 -2.3125 5.1875 -2.019531 5.1875 -1.65625 C 5.1875 -1.351562 5.101562 -1.066406 4.9375 -0.796875 C 4.769531 -0.535156 4.503906 -0.316406 4.140625 -0.140625 C 3.785156 0.0351562 3.332031 0.125 2.78125 0.125 C 2.15625 0.125 1.601562 -0.00390625 1.125 -0.265625 C 0.65625 -0.535156 0.359375 -0.953125 0.234375 -1.515625 L 1.640625 -1.734375 C 1.765625 -1.160156 2.144531 -0.875 2.78125 -0.875 C 3.019531 -0.875 3.242188 -0.914062 3.453125 -1 C 3.671875 -1.09375 3.78125 -1.25 3.78125 -1.46875 C 3.78125 -1.601562 3.726562 -1.703125 3.625 -1.765625 C 3.53125 -1.828125 3.375 -1.878906 3.15625 -1.921875 C 2.507812 -2.066406 2.003906 -2.195312 1.640625 -2.3125 C 1.285156 -2.4375 0.992188 -2.613281 0.765625 -2.84375 C 0.546875 -3.082031 0.4375 -3.398438 0.4375 -3.796875 C 0.4375 -4.347656 0.644531 -4.753906 1.0625 -5.015625 C 1.488281 -5.285156 2.023438 -5.421875 2.671875 -5.421875 Z M 2.671875 -5.421875 "/></g></g></g><g fill="#000000" fill-opacity="1"><g transform="translate(312.608692, 251.440546)"><g><path d="M 3.140625 -5.421875 C 3.710938 -5.421875 4.207031 -5.289062 4.625 -5.03125 C 5.039062 -4.769531 5.351562 -4.425781 5.5625 -4 C 5.78125 -3.582031 5.890625 -3.140625 5.890625 -2.671875 C 5.890625 -2.179688 5.773438 -1.722656 5.546875 -1.296875 C 5.328125 -0.867188 5.007812 -0.523438 4.59375 -0.265625 C 4.1875 -0.00390625 3.707031 0.125 3.15625 0.125 C 2.6875 0.125 2.242188 0.03125 1.828125 -0.15625 C 1.410156 -0.351562 1.066406 -0.664062 0.796875 -1.09375 C 0.535156 -1.519531 0.40625 -2.0625 0.40625 -2.71875 C 0.40625 -3.175781 0.507812 -3.609375 0.71875 -4.015625 C 0.925781 -4.429688 1.234375 -4.769531 1.640625 -5.03125 C 2.054688 -5.289062 2.554688 -5.421875 3.140625 -5.421875 Z M 1.859375 -2.65625 C 1.859375 -2.125 1.976562 -1.71875 2.21875 -1.4375 C 2.46875 -1.15625 2.773438 -1.015625 3.140625 -1.015625 C 3.503906 -1.015625 3.8125 -1.148438 4.0625 -1.421875 C 4.3125 -1.703125 4.4375 -2.113281 4.4375 -2.65625 C 4.4375 -3.164062 4.316406 -3.5625 4.078125 -3.84375 C 3.835938 -4.132812 3.519531 -4.28125 3.125 -4.28125 C 2.769531 -4.28125 2.46875 -4.140625 2.21875 -3.859375 C 1.976562 -3.578125 1.859375 -3.175781 1.859375 -2.65625 Z M 1.859375 -2.65625 "/></g></g></g><g fill="#000000" fill-opacity="1"><g transform="translate(318.852302, 251.440546)"><g><path d="M 1.0625 -4.625 C 1.519531 -5.15625 2.171875 -5.421875 3.015625 -5.421875 C 4.273438 -5.421875 5.0625 -4.859375 5.375 -3.734375 L 3.984375 -3.484375 C 3.867188 -4.046875 3.550781 -4.328125 3.03125 -4.328125 C 2.675781 -4.328125 2.394531 -4.203125 2.1875 -3.953125 C 1.976562 -3.710938 1.875 -3.316406 1.875 -2.765625 C 1.875 -2.222656 1.960938 -1.796875 2.140625 -1.484375 C 2.316406 -1.171875 2.617188 -1.015625 3.046875 -1.015625 C 3.328125 -1.015625 3.550781 -1.097656 3.71875 -1.265625 C 3.882812 -1.441406 4 -1.695312 4.0625 -2.03125 L 5.4375 -1.796875 C 5.15625 -0.515625 4.335938 0.125 2.984375 0.125 C 2.171875 0.125 1.546875 -0.117188 1.109375 -0.609375 C 0.890625 -0.867188 0.722656 -1.175781 0.609375 -1.53125 C 0.492188 -1.894531 0.4375 -2.269531 0.4375 -2.65625 C 0.4375 -3.050781 0.488281 -3.414062 0.59375 -3.75 C 0.695312 -4.09375 0.851562 -4.382812 1.0625 -4.625 Z M 1.0625 -4.625 "/></g></g></g><g fill="#000000" fill-opacity="1"><g transform="translate(324.533893, 251.440546)"><g><path d="M 2.765625 -5.421875 C 3.609375 -5.421875 4.238281 -5.144531 4.65625 -4.59375 C 5.070312 -4.050781 5.28125 -3.269531 5.28125 -2.25 L 1.765625 -2.25 C 1.773438 -1.894531 1.875 -1.585938 2.0625 -1.328125 C 2.257812 -1.078125 2.546875 -0.953125 2.921875 -0.953125 C 3.148438 -0.953125 3.335938 -1.007812 3.484375 -1.125 C 3.628906 -1.25 3.738281 -1.4375 3.8125 -1.6875 L 5.203125 -1.453125 C 5.023438 -0.929688 4.738281 -0.535156 4.34375 -0.265625 C 3.945312 -0.00390625 3.460938 0.125 2.890625 0.125 C 2.035156 0.125 1.394531 -0.128906 0.96875 -0.640625 C 0.757812 -0.878906 0.597656 -1.179688 0.484375 -1.546875 C 0.378906 -1.910156 0.328125 -2.269531 0.328125 -2.625 C 0.328125 -3.101562 0.410156 -3.554688 0.578125 -3.984375 C 0.753906 -4.410156 1.023438 -4.753906 1.390625 -5.015625 C 1.753906 -5.285156 2.210938 -5.421875 2.765625 -5.421875 Z M 1.796875 -3.109375 L 3.890625 -3.109375 C 3.878906 -3.535156 3.769531 -3.847656 3.5625 -4.046875 C 3.351562 -4.242188 3.109375 -4.34375 2.828125 -4.34375 C 2.503906 -4.34375 2.25 -4.222656 2.0625 -3.984375 C 1.882812 -3.753906 1.796875 -3.460938 1.796875 -3.109375 Z M 1.796875 -3.109375 "/></g></g></g><g fill="#000000" fill-opacity="1"><g transform="translate(330.215483, 251.440546)"><g><path d="M 3.78125 -5.421875 C 4.09375 -5.421875 4.363281 -5.367188 4.59375 -5.265625 C 4.832031 -5.160156 5.019531 -5.035156 5.15625 -4.890625 C 5.320312 -4.710938 5.429688 -4.503906 5.484375 -4.265625 C 5.535156 -4.023438 5.5625 -3.753906 5.5625 -3.453125 L 5.5625 0 L 4.15625 0 L 4.15625 -2.890625 C 4.15625 -3.390625 4.097656 -3.753906 3.984375 -3.984375 C 3.878906 -4.222656 3.648438 -4.34375 3.296875 -4.34375 C 2.960938 -4.34375 2.703125 -4.25 2.515625 -4.0625 C 2.328125 -3.875 2.21875 -3.648438 2.1875 -3.390625 C 2.164062 -3.234375 2.148438 -3.085938 2.140625 -2.953125 C 2.128906 -2.828125 2.125 -2.679688 2.125 -2.515625 L 2.125 0 L 0.734375 0 L 0.734375 -5.296875 L 2.0625 -5.296875 L 2.0625 -4.53125 C 2.207031 -4.75 2.425781 -4.953125 2.71875 -5.140625 C 3.019531 -5.328125 3.375 -5.421875 3.78125 -5.421875 Z M 3.78125 -5.421875 "/></g></g></g><g fill="#000000" fill-opacity="1"><g transform="translate(336.459093, 251.440546)"><g><path d="M 2.203125 -5.296875 L 3.15625 -5.296875 L 3.15625 -4.1875 L 2.203125 -4.1875 L 2.203125 -1.859375 C 2.203125 -1.628906 2.210938 -1.457031 2.234375 -1.34375 C 2.253906 -1.238281 2.289062 -1.160156 2.34375 -1.109375 C 2.394531 -1.066406 2.476562 -1.046875 2.59375 -1.046875 C 2.738281 -1.046875 2.925781 -1.085938 3.15625 -1.171875 L 3.28125 -0.09375 C 3.132812 -0.0195312 2.957031 0.03125 2.75 0.0625 C 2.550781 0.101562 2.363281 0.125 2.1875 0.125 C 1.914062 0.125 1.675781 0.0820312 1.46875 0 C 1.269531 -0.09375 1.117188 -0.21875 1.015625 -0.375 C 0.921875 -0.539062 0.859375 -0.726562 0.828125 -0.9375 C 0.804688 -1.144531 0.796875 -1.40625 0.796875 -1.71875 L 0.796875 -4.1875 L 0.15625 -4.1875 L 0.15625 -5.296875 L 0.796875 -5.296875 L 0.796875 -6.359375 L 2.203125 -7.1875 Z M 2.203125 -5.296875 "/></g></g></g><g fill="#000000" fill-opacity="1"><g transform="translate(339.861914, 251.440546)"><g><path d="M 2.765625 -5.421875 C 3.609375 -5.421875 4.238281 -5.144531 4.65625 -4.59375 C 5.070312 -4.050781 5.28125 -3.269531 5.28125 -2.25 L 1.765625 -2.25 C 1.773438 -1.894531 1.875 -1.585938 2.0625 -1.328125 C 2.257812 -1.078125 2.546875 -0.953125 2.921875 -0.953125 C 3.148438 -0.953125 3.335938 -1.007812 3.484375 -1.125 C 3.628906 -1.25 3.738281 -1.4375 3.8125 -1.6875 L 5.203125 -1.453125 C 5.023438 -0.929688 4.738281 -0.535156 4.34375 -0.265625 C 3.945312 -0.00390625 3.460938 0.125 2.890625 0.125 C 2.035156 0.125 1.394531 -0.128906 0.96875 -0.640625 C 0.757812 -0.878906 0.597656 -1.179688 0.484375 -1.546875 C 0.378906 -1.910156 0.328125 -2.269531 0.328125 -2.625 C 0.328125 -3.101562 0.410156 -3.554688 0.578125 -3.984375 C 0.753906 -4.410156 1.023438 -4.753906 1.390625 -5.015625 C 1.753906 -5.285156 2.210938 -5.421875 2.765625 -5.421875 Z M 1.796875 -3.109375 L 3.890625 -3.109375 C 3.878906 -3.535156 3.769531 -3.847656 3.5625 -4.046875 C 3.351562 -4.242188 3.109375 -4.34375 2.828125 -4.34375 C 2.503906 -4.34375 2.25 -4.222656 2.0625 -3.984375 C 1.882812 -3.753906 1.796875 -3.460938 1.796875 -3.109375 Z M 1.796875 -3.109375 "/></g></g></g><g fill="#000000" fill-opacity="1"><g transform="translate(345.543504, 251.440546)"><g><path d="M 3.1875 -5.421875 C 3.34375 -5.421875 3.503906 -5.394531 3.671875 -5.34375 C 3.835938 -5.300781 3.984375 -5.242188 4.109375 -5.171875 L 3.671875 -3.9375 C 3.429688 -4.09375 3.210938 -4.171875 3.015625 -4.171875 C 2.753906 -4.171875 2.550781 -4.078125 2.40625 -3.890625 C 2.269531 -3.710938 2.179688 -3.460938 2.140625 -3.140625 C 2.097656 -2.816406 2.078125 -2.382812 2.078125 -1.84375 L 2.078125 0 L 0.671875 0 L 0.671875 -5.296875 L 1.96875 -5.296875 L 1.96875 -4.546875 L 2 -4.546875 C 2.164062 -4.835938 2.332031 -5.054688 2.5 -5.203125 C 2.675781 -5.347656 2.90625 -5.421875 3.1875 -5.421875 Z M 3.1875 -5.421875 "/></g></g></g></svg>